<?xml version="1.0" standalone="no"?>
<!DOCTYPE svg PUBLIC "-//W3C//DTD SVG 20010904//EN"
 "http://www.w3.org/TR/2001/REC-SVG-20010904/DTD/svg10.dtd">
<svg version="1.0" xmlns="http://www.w3.org/2000/svg"
 width="1280.000000pt" height="640.000000pt" viewBox="0 0 1280.000000 640.000000"
 preserveAspectRatio="xMidYMid meet">
<metadata>
Created by potrace 1.15, written by Peter Selinger 2001-2017
</metadata>
<g transform="translate(0.000000,640.000000) scale(0.100000,-0.100000)"
fill="#000000" stroke="none">
<path d="M11580 5867 c-55 -26 -251 -219 -269 -264 -12 -29 -21 -35 -100 -58
-161 -48 -281 -96 -479 -192 -263 -127 -464 -203 -536 -203 -29 0 -137 20
-240 45 -178 43 -199 46 -439 60 -245 14 -255 15 -377 53 -69 21 -226 84 -350
139 -338 151 -467 192 -737 236 -121 19 -173 22 -418 21 -368 -1 -687 -35
-965 -104 -63 -16 -142 -34 -175 -40 -86 -17 -612 -168 -660 -189 -79 -35
-206 -149 -560 -506 l-360 -362 -100 -6 c-143 -9 -232 -28 -885 -192 -651
-163 -1141 -263 -1545 -315 -345 -44 -439 -47 -625 -21 -261 37 -430 94 -800
268 -58 28 -129 56 -159 63 -113 27 -261 -5 -467 -101 -143 -66 -206 -111
-260 -182 -92 -123 -97 -252 -13 -358 88 -111 222 -97 459 49 120 74 182 95
255 86 76 -10 108 -24 363 -158 289 -153 393 -190 601 -216 324 -42 437 -43
816 -5 498 50 1052 152 1595 295 185 48 377 93 428 100 134 19 345 8 444 -22
73 -22 79 -26 133 -93 31 -38 81 -91 112 -116 70 -59 236 -144 333 -170 80
-22 315 -85 645 -174 297 -80 351 -110 402 -221 20 -43 26 -73 26 -123 0 -63
-5 -77 -102 -282 -55 -119 -101 -227 -101 -239 0 -13 10 -38 21 -57 25 -40 19
-48 -43 -58 -53 -9 -123 -77 -138 -134 -19 -73 -8 -82 262 -193 213 -87 250
-106 384 -195 209 -139 302 -169 493 -160 101 5 129 10 211 41 52 20 100 36
107 36 6 0 19 -26 28 -57 9 -32 18 -65 21 -74 2 -9 14 -25 27 -36 12 -11 216
-97 453 -192 393 -157 434 -175 470 -212 21 -23 55 -52 75 -64 30 -20 43 -39
73 -117 41 -102 84 -174 119 -199 27 -20 199 -83 362 -134 186 -58 246 -51
281 32 22 52 17 102 -25 231 -47 143 -130 291 -206 367 -193 192 -297 265
-580 408 -49 25 -116 64 -149 88 l-58 44 73 7 c41 4 85 12 99 17 14 5 38 12
54 16 48 10 417 227 458 268 46 48 88 131 89 178 0 19 -30 168 -69 331 -38
164 -66 300 -64 303 3 3 46 5 96 5 127 0 513 27 567 39 134 31 222 76 384 197
140 105 152 117 345 369 265 346 510 608 685 735 96 69 132 87 250 130 85 31
97 33 216 32 142 -1 247 -20 359 -62 153 -59 194 -62 246 -17 19 17 27 35 31
70 5 42 3 51 -21 76 -23 24 -25 31 -16 56 10 27 11 28 78 21 38 -4 76 -4 85 0
10 3 58 58 108 121 88 111 90 115 80 146 -22 63 -95 158 -186 244 l-93 88 -7
70 c-8 77 -37 144 -85 199 -48 55 -299 247 -355 271 -55 25 -79 47 -90 85 -21
74 -76 100 -159 75 -27 -8 -50 -14 -51 -13 -2 2 -10 17 -19 35 -29 58 -96 74
-166 40z m-2857 -3307 c85 -115 140 -226 133 -265 -9 -42 -30 -58 -121 -93
-101 -38 -241 -64 -325 -60 l-65 3 157 52 c216 72 258 100 258 175 0 29 -12
45 -80 113 -44 44 -80 84 -80 89 0 11 50 66 59 66 3 -1 32 -36 64 -80z m-1083
-344 c0 -2 -42 -31 -94 -65 -90 -58 -96 -60 -162 -61 -81 -2 -178 28 -276 85
-35 20 -65 39 -67 41 -2 2 131 4 297 4 166 0 302 -2 302 -4z"/>
</g>
</svg>
