<?xml version="1.0" encoding="UTF-8" standalone="no"?>
<svg
   xmlns:dc="http://purl.org/dc/elements/1.1/"
   xmlns:cc="http://creativecommons.org/ns#"
   xmlns:rdf="http://www.w3.org/1999/02/22-rdf-syntax-ns#"
   xmlns:svg="http://www.w3.org/2000/svg"
   xmlns="http://www.w3.org/2000/svg"
   xmlns:sodipodi="http://sodipodi.sourceforge.net/DTD/sodipodi-0.dtd"
   xmlns:inkscape="http://www.inkscape.org/namespaces/inkscape"
   width="147.41072mm"
   height="69.249687mm"
   viewBox="0 0 147.41072 69.249687"
   version="1.1"
   id="svg839"
   inkscape:version="1.0.2 (e86c8708, 2021-01-15)"
   sodipodi:docname="smallAngle.svg">
  <defs
     id="defs833">
    <inkscape:path-effect
       effect="powerstroke"
       id="path-effect1454"
       is_visible="true"
       lpeversion="1"
       offset_points="0,0.11558017"
       sort_points="true"
       interpolator_type="CubicBezierJohan"
       interpolator_beta="0.2"
       start_linecap_type="zerowidth"
       linejoin_type="extrp_arc"
       miter_limit="4"
       scale_width="1"
       end_linecap_type="zerowidth" />
    <inkscape:path-effect
       effect="spiro"
       id="path-effect1452"
       is_visible="true"
       lpeversion="1" />
    <inkscape:path-effect
       effect="powerstroke"
       id="path-effect1444"
       is_visible="true"
       lpeversion="1"
       offset_points="0,0.11558017"
       sort_points="true"
       interpolator_type="CubicBezierJohan"
       interpolator_beta="0.2"
       start_linecap_type="zerowidth"
       linejoin_type="extrp_arc"
       miter_limit="4"
       scale_width="1"
       end_linecap_type="zerowidth" />
    <inkscape:path-effect
       effect="spiro"
       id="path-effect1442"
       is_visible="true"
       lpeversion="1" />
  </defs>
  <sodipodi:namedview
     id="base"
     pagecolor="#ffffff"
     bordercolor="#666666"
     borderopacity="1.0"
     inkscape:pageopacity="0.0"
     inkscape:pageshadow="2"
     inkscape:zoom="0.35"
     inkscape:cx="285.71427"
     inkscape:cy="-115.41173"
     inkscape:document-units="mm"
     inkscape:current-layer="layer1"
     inkscape:document-rotation="0"
     showgrid="false"
     fit-margin-top="0"
     fit-margin-left="0"
     fit-margin-right="0"
     fit-margin-bottom="0"
     inkscape:window-width="2560"
     inkscape:window-height="1440"
     inkscape:window-x="0"
     inkscape:window-y="0"
     inkscape:window-maximized="0" />
  <metadata
     id="metadata836">
    <rdf:RDF>
      <cc:Work
         rdf:about="">
        <dc:format>image/svg+xml</dc:format>
        <dc:type
           rdf:resource="http://purl.org/dc/dcmitype/StillImage" />
        <dc:title></dc:title>
      </cc:Work>
    </rdf:RDF>
  </metadata>
  <g
     inkscape:label="Layer 1"
     inkscape:groupmode="layer"
     id="layer1"
     transform="translate(-30.238098,-178.70269)">
    <rect
       style="fill:#000000;stroke-width:0.264583"
       id="rect1404"
       width="147.41072"
       height="8.3154764"
       x="30.238098"
       y="239.6369"
       ry="4.1577382"
       rx="0" />
    <rect
       style="fill:#000000;stroke-width:0.264583"
       id="rect1404-8"
       width="147.41072"
       height="8.3154764"
       x="114.86873"
       y="142.10716"
       ry="4.1577382"
       rx="0"
       transform="rotate(25)" />
    <path
       style="fill:#000000;fill-rule:nonzero;stroke:#000000;stroke-width:5.24207;stroke-linecap:butt;stroke-linejoin:miter;stroke-miterlimit:4;stroke-dasharray:none;stroke-opacity:1"
       d="m 51.805253,243.84622 c 0,0 0.09119,-0.071 0.09119,-0.071 -2.168029,-2.7837 -4.725481,-7.01139 -6.161321,-12.6941 -1.069457,-4.23266 -1.453882,-9.08565 -0.603857,-14.10456 0.776152,-4.58272 2.550803,-9.08261 5.219449,-13.12709 2.668588,-4.04439 6.109608,-7.44914 10.023587,-9.96853 0.997554,-0.66307 1.862357,-1.15867 2.424674,-1.45706 -0.573249,0.30419 -1.430171,0.76179 -2.461422,1.39976 -3.930254,2.51192 -7.39222,5.91348 -10.0832,9.96201 -2.690924,4.04844 -4.488922,8.56038 -5.283847,13.16341 -0.870634,5.04143 -0.499538,9.92185 0.564854,14.18225 1.429119,5.72027 3.99471,9.98174 6.178709,12.78595 0,0 0.09119,-0.071 0.09119,-0.071 z"
       id="path1440"
       inkscape:path-effect="#path-effect1442;#path-effect1444"
       inkscape:original-d="m 51.805253,243.84622 c 2.850439,-16.6644 5.700662,-33.32905 8.550671,-49.99395 2.850011,-16.66491 1.628913,-0.95202 2.443048,-1.42841" />
    <rect
       style="fill:#000000;stroke-width:0.264583"
       id="rect1446"
       width="147.41072"
       height="8.3154764"
       x="30.238098"
       y="239.6369"
       ry="4.1577382"
       rx="0" />
    <rect
       style="fill:#000000;stroke-width:0.264583"
       id="rect1448"
       width="147.41072"
       height="8.3154764"
       x="114.86873"
       y="142.10716"
       ry="4.1577382"
       rx="0"
       transform="rotate(25)" />
    <path
       style="fill:#000000;fill-rule:nonzero;stroke:#000000;stroke-width:5.24207;stroke-linecap:butt;stroke-linejoin:miter;stroke-miterlimit:4;stroke-dasharray:none;stroke-opacity:1"
       d="m 51.805253,243.84622 c 0,0 0.09119,-0.071 0.09119,-0.071 -2.168029,-2.7837 -4.725481,-7.01139 -6.161321,-12.6941 -1.069457,-4.23266 -1.453882,-9.08565 -0.603857,-14.10456 0.776152,-4.58272 2.550803,-9.08261 5.219449,-13.12709 2.668588,-4.04439 6.109608,-7.44914 10.023587,-9.96853 0.997554,-0.66307 1.862357,-1.15867 2.424674,-1.45706 -0.573249,0.30419 -1.430171,0.76179 -2.461422,1.39976 -3.930254,2.51192 -7.39222,5.91348 -10.0832,9.96201 -2.690924,4.04844 -4.488922,8.56038 -5.283847,13.16341 -0.870634,5.04143 -0.499538,9.92185 0.564854,14.18225 1.429119,5.72027 3.99471,9.98174 6.178709,12.78595 0,0 0.09119,-0.071 0.09119,-0.071 z"
       id="path1450"
       inkscape:path-effect="#path-effect1452;#path-effect1454"
       inkscape:original-d="m 51.805253,243.84622 c 2.850439,-16.6644 5.700662,-33.32905 8.550671,-49.99395 2.850011,-16.66491 1.628913,-0.95202 2.443048,-1.42841" />
  </g>
</svg>
